<svg xmlns="http://www.w3.org/2000/svg" xmlns:xlink="http://www.w3.org/1999/xlink" width="800" zoomAndPan="magnify" viewBox="0 0 600 30.000001" height="40" preserveAspectRatio="xMidYMid meet" version="1.0"><defs><clipPath id="301a926b09"><path d="M 29 9.09375 L 570.964844 9.09375 L 570.964844 19.980469 L 29 19.980469 Z M 29 9.09375 " clip-rule="nonzero"/></clipPath></defs><g clip-path="url(#301a926b09)"><path fill="#080908" d="M 571.320312 13.273438 C 568.253906 15.65625 565.351562 16.957031 561.71875 16.773438 C 553.703125 16.378906 545.675781 16.125 537.648438 15.992188 C 511.796875 15.597656 485.945312 15.246094 460.089844 14.933594 C 441.148438 14.707031 422.191406 14.535156 403.25 14.34375 C 385.679688 14.175781 368.09375 13.910156 350.523438 13.910156 C 335.730469 13.910156 320.953125 14.078125 306.160156 14.464844 C 293.296875 14.800781 280.441406 15.570312 267.578125 16.089844 C 260.585938 16.367188 253.578125 16.488281 246.585938 16.738281 C 214.8125 17.917969 183.027344 17.089844 151.257812 17.304688 C 134.117188 17.425781 116.992188 17.640625 99.855469 18.015625 C 84.785156 18.339844 69.71875 18.953125 54.648438 19.410156 C 48.632812 19.589844 42.613281 19.710938 36.585938 19.773438 C 34.828125 19.785156 33.058594 19.617188 31.324219 19.351562 C 29.6875 19.109375 28.847656 18.074219 29.0625 16.835938 C 29.328125 15.34375 30.445312 15.199219 31.710938 15.101562 C 39.507812 14.511719 47.308594 13.851562 55.117188 13.25 C 57.851562 13.042969 60.582031 12.886719 63.328125 12.792969 C 74.484375 12.40625 85.628906 11.925781 96.785156 11.71875 C 106.425781 11.550781 116.078125 11.683594 125.71875 11.71875 C 130.121094 11.734375 134.527344 11.757812 138.933594 11.914062 C 147.152344 12.191406 155.359375 12.5625 163.582031 12.898438 C 164.121094 12.925781 164.652344 12.984375 165.191406 12.984375 C 178.503906 13.175781 191.828125 13.539062 205.136719 13.515625 C 216.101562 13.488281 227.066406 13.070312 238.019531 12.707031 C 247.261719 12.40625 256.503906 11.996094 265.746094 11.5625 C 278.855469 10.949219 291.949219 10.226562 305.054688 9.636719 C 310.492188 9.398438 315.921875 9.265625 321.363281 9.277344 C 338.152344 9.324219 354.953125 9.324219 371.742188 9.601562 C 384.269531 9.820312 396.785156 10.589844 409.316406 10.867188 C 421.15625 11.117188 433.011719 11.035156 444.855469 11.105469 C 449.5 11.128906 454.160156 11.226562 458.804688 11.226562 C 465.761719 11.214844 472.703125 11.082031 479.660156 11.09375 C 502.769531 11.144531 525.886719 11.179688 548.996094 11.347656 C 555.398438 11.394531 561.800781 11.851562 568.203125 12.226562 C 569.15625 12.273438 570.082031 12.839844 571.320312 13.273438 Z M 571.320312 13.273438 " fill-opacity="1" fill-rule="nonzero"/></g></svg>