<svg xmlns="http://www.w3.org/2000/svg" xmlns:xlink="http://www.w3.org/1999/xlink" width="800" zoomAndPan="magnify" viewBox="0 0 600 30.000001" height="40" preserveAspectRatio="xMidYMid meet" version="1.0"><defs><clipPath id="f614240f1d"><path d="M 17.550781 7 L 582.230469 7 L 582.230469 22.992188 L 17.550781 22.992188 Z M 17.550781 7 " clip-rule="nonzero"/></clipPath></defs><g clip-path="url(#f614240f1d)"><path fill="#080908" d="M 21.25 12.539062 C 28.074219 12.710938 34.910156 13.105469 41.734375 13.007812 C 49.621094 12.882812 57.5 12.328125 65.386719 11.957031 C 65.84375 11.933594 66.289062 11.882812 66.746094 11.882812 C 82.039062 11.882812 97.320312 11.785156 112.617188 11.90625 C 125.796875 12.019531 138.960938 12.636719 152.128906 12.5625 C 165.507812 12.488281 178.871094 11.96875 192.238281 11.4375 C 205.144531 10.917969 218.039062 9.992188 230.949219 9.519531 C 240.132812 9.199219 249.34375 9.335938 258.542969 9.296875 C 261.609375 9.285156 264.675781 9.359375 267.742188 9.386719 C 279.265625 9.484375 290.773438 9.546875 302.296875 9.695312 C 314.773438 9.855469 327.234375 10.125 339.710938 10.324219 C 357.5625 10.609375 375.402344 11.078125 393.257812 11.078125 C 404.210938 11.078125 415.191406 10.71875 426.105469 9.84375 C 439.78125 8.753906 453.441406 9.238281 467.117188 9.199219 C 480.183594 9.164062 493.253906 8.667969 506.335938 8.570312 C 519.957031 8.46875 533.582031 8.46875 547.207031 8.679688 C 557.234375 8.828125 567.210938 8.742188 577.128906 7.097656 C 579.058594 6.777344 580.738281 7.503906 581.628906 9.101562 C 582.417969 10.523438 582.257812 12.214844 581.21875 13.476562 C 580.035156 14.910156 578.351562 15.28125 576.449219 14.640625 C 575.558594 14.34375 574.605469 14.082031 573.679688 14.082031 C 559.792969 13.933594 545.921875 13.824219 532.039062 13.722656 C 521.925781 13.648438 511.824219 13.625 501.710938 13.503906 C 486.726562 13.328125 471.742188 12.847656 456.757812 12.957031 C 446 13.03125 435.257812 13.835938 424.511719 14.316406 C 421.902344 14.429688 419.28125 14.613281 416.671875 14.652344 C 404.804688 14.789062 392.933594 15.070312 381.066406 14.949219 C 366.886719 14.789062 352.714844 14.121094 338.535156 13.945312 C 328.976562 13.835938 319.421875 14.15625 309.875 14.34375 C 298.910156 14.539062 287.957031 14.703125 276.988281 15.046875 C 264.019531 15.457031 251.0625 15.925781 238.105469 16.605469 C 224.308594 17.324219 210.523438 18.421875 196.710938 19.140625 C 185.265625 19.734375 173.804688 20.265625 162.355469 20.414062 C 146.367188 20.625 130.371094 20.3125 114.371094 20.5 C 102.8125 20.636719 91.25 21.203125 79.691406 21.585938 C 78.886719 21.613281 78.082031 21.625 77.28125 21.636719 C 68.03125 21.761719 58.773438 21.808594 49.523438 22.019531 C 40.917969 22.21875 32.488281 20.96875 24.105469 19.203125 C 22.507812 18.867188 20.925781 18.226562 19.492188 17.457031 C 18.007812 16.667969 17.527344 15.21875 17.945312 14.019531 C 18.367188 12.808594 19.605469 12.128906 21.261719 12.179688 C 21.261719 12.300781 21.261719 12.425781 21.261719 12.539062 Z M 21.25 12.539062 " fill-opacity="1" fill-rule="nonzero"/></g></svg>